<?xml version="1.0" encoding="utf-8"?>
<!-- Generator: Adobe Illustrator 16.0.0, SVG Export Plug-In . SVG Version: 6.00 Build 0)  -->
<!DOCTYPE svg PUBLIC "-//W3C//DTD SVG 1.1//EN" "http://www.w3.org/Graphics/SVG/1.1/DTD/svg11.dtd">
<svg version="1.1" id="Layer_1" xmlns="http://www.w3.org/2000/svg" xmlns:xlink="http://www.w3.org/1999/xlink" x="0px" y="0px"
	 width="995.097px" height="868.856px" viewBox="0 0 995.097 868.856" enable-background="new 0 0 995.097 868.856"
	 xml:space="preserve">
<polygon fill="#5555FF" points="224.986,107.573 355.458,32.141 311.906,7 181.441,82.43 "/>
<path fill="#0000FF" d="M224.986,114.573c-1.208,0-2.417-0.313-3.5-0.938l-43.545-25.143c-2.166-1.25-3.5-3.56-3.5-6.06
	c-0.001-2.5,1.332-4.811,3.496-6.062L308.402,0.94c2.166-1.252,4.836-1.253,7.004-0.002l43.553,25.141
	c2.165,1.25,3.499,3.56,3.5,6.06c0.001,2.5-1.332,4.811-3.496,6.063l-130.473,75.432
	C227.406,114.259,226.196,114.573,224.986,114.573z M195.433,82.426l29.55,17.062l116.481-67.342l-29.556-17.062L195.433,82.426z"/>
<polygon fill="#8080FF" points="224.992,459.52 355.458,384.196 355.693,32.141 224.986,107.572 "/>
<path fill="#0000FF" d="M224.992,466.52c-1.208,0-2.417-0.313-3.5-0.938c-2.166-1.251-3.5-3.562-3.5-6.063l-0.006-351.948
	c0-2.501,1.334-4.813,3.501-6.063l130.707-75.431c2.168-1.25,4.836-1.25,7.002,0.002c2.165,1.251,3.499,3.564,3.497,6.065
	l-0.235,352.055c-0.002,2.499-1.336,4.808-3.5,6.057l-130.466,75.324C227.409,466.208,226.2,466.52,224.992,466.52z
	 M231.986,111.615l0.006,335.781l116.469-67.243l0.225-335.886L231.986,111.615z"/>
<polygon fill="#FFFFFF" points="486.16,560.142 726.8,420.853 988.097,571.708 857.446,647.138 639.713,521.424 529.711,585.288 "/>
<path fill="#0000FF" d="M857.446,654.138c-1.209,0-2.417-0.313-3.5-0.938L639.723,529.513l-106.497,61.828
	c-2.169,1.26-4.844,1.262-7.015,0.009l-43.552-25.146c-2.165-1.25-3.499-3.56-3.5-6.059c-0.001-2.5,1.33-4.81,3.493-6.063
	l240.641-139.29c2.169-1.253,4.84-1.254,7.007-0.004l261.297,150.855c2.166,1.251,3.5,3.562,3.5,6.063s-1.334,4.812-3.5,6.063
	l-130.651,75.431C859.863,653.826,858.654,654.138,857.446,654.138z M639.713,514.424c1.209,0,2.417,0.313,3.5,0.938
	l214.232,123.693l116.651-67.348l-247.292-142.77L500.146,560.134l29.556,17.064l106.497-61.828
	C637.286,514.74,638.5,514.424,639.713,514.424z"/>
<polygon fill="#0000FF" points="639.712,521.424 639.712,621.996 857.45,747.708 857.447,647.138 "/>
<path fill="#0000FF" d="M857.45,754.708c-1.209,0-2.417-0.313-3.5-0.938L636.212,628.058c-2.166-1.251-3.5-3.562-3.5-6.063V521.424
	c0-2.501,1.334-4.812,3.5-6.063c2.168-1.25,4.836-1.249,7,0l217.734,125.714c2.166,1.251,3.5,3.562,3.5,6.063l0.003,100.569
	c0,2.501-1.334,4.812-3.5,6.063C859.867,754.395,858.659,754.708,857.45,754.708z M646.712,617.955L850.45,735.583l-0.003-84.403
	l-203.734-117.63V617.955z"/>
<polygon fill="#5555FF" points="857.45,747.708 988.095,672.28 988.097,571.708 857.446,647.138 "/>
<path fill="#0000FF" d="M857.45,754.708c-1.209,0-2.417-0.313-3.5-0.938c-2.166-1.251-3.5-3.562-3.5-6.063l-0.004-100.569
	c0-2.501,1.334-4.812,3.5-6.063l130.651-75.431c2.168-1.25,4.836-1.249,7,0c2.166,1.251,3.5,3.562,3.5,6.063l-0.002,100.572
	c0,2.501-1.334,4.812-3.5,6.063L860.95,753.77C859.867,754.395,858.659,754.708,857.45,754.708z M864.446,651.179l0.004,84.404
	l116.646-67.346l0.002-84.406L864.446,651.179z"/>
<polygon fill="#FFFFFF" points="486.16,560.142 486.164,761.287 529.707,786.429 529.711,585.288 "/>
<path fill="#0000FF" d="M529.707,793.429c-1.209,0-2.417-0.313-3.5-0.938l-43.543-25.143c-2.166-1.25-3.5-3.561-3.5-6.062
	l-0.004-201.145c0-2.501,1.334-4.812,3.5-6.063c2.167-1.25,4.835-1.249,7,0l43.552,25.146c2.166,1.251,3.5,3.562,3.5,6.063
	l-0.005,201.142c0,2.501-1.334,4.812-3.5,6.063C532.124,793.117,530.915,793.429,529.707,793.429z M493.164,757.246l29.543,17.059
	l0.005-184.976l-29.552-17.062L493.164,757.246z"/>
<polygon fill="#8080FF" points="639.712,621.995 639.712,521.424 529.712,585.288 529.708,786.429 616.81,736.144 616.805,635.574 
	"/>
<path fill="#0000FF" d="M529.708,793.429c-1.209,0-2.417-0.313-3.5-0.938c-2.166-1.251-3.5-3.562-3.5-6.063l0.005-201.142
	c0-2.495,1.328-4.801,3.485-6.054l110-63.863c2.165-1.258,4.837-1.261,7.008-0.013c2.17,1.249,3.507,3.563,3.507,6.066v100.57
	c0,2.472-1.304,4.761-3.431,6.021l-19.477,11.546l0.005,96.582c0,2.501-1.334,4.812-3.5,6.063l-87.103,50.285
	C532.125,793.117,530.916,793.429,529.708,793.429z M536.712,589.318l-0.005,184.987l73.103-42.203l-0.005-96.528
	c0-2.472,1.304-4.761,3.431-6.021l19.477-11.546v-84.424L536.712,589.318z"/>
<polygon fill="#5555FF" points="683.251,496.278 726.805,471.138 901,571.707 857.452,596.849 "/>
<path fill="#0000FF" d="M857.452,603.849c-1.209,0-2.417-0.313-3.5-0.938l-174.2-100.571c-2.166-1.251-3.5-3.562-3.5-6.063
	s1.335-4.813,3.501-6.063l43.554-25.14c2.166-1.25,4.835-1.249,6.999,0L904.5,565.644c2.166,1.251,3.5,3.562,3.5,6.063
	s-1.334,4.812-3.5,6.063l-43.549,25.143C859.869,603.537,858.661,603.849,857.452,603.849z M697.252,496.279l160.199,92.487
	L887,571.707l-160.195-92.485L697.252,496.279z"/>
<polygon fill="#8080FF" points="726.804,471.138 726.8,521.424 683.251,496.278 "/>
<path fill="#0000FF" d="M726.8,528.424c-1.209,0-2.417-0.313-3.5-0.938l-43.549-25.146c-2.166-1.25-3.5-3.562-3.5-6.063
	c0-2.5,1.335-4.812,3.501-6.062l43.553-25.14c2.166-1.25,4.834-1.25,7,0.001c2.165,1.25,3.499,3.562,3.499,6.063l-0.004,50.286
	c0,2.5-1.335,4.812-3.5,6.062C729.217,528.112,728.008,528.424,726.8,528.424z M697.251,496.279l22.55,13.021l0.002-26.037
	L697.251,496.279z"/>
<polygon fill="#0000FF" points="50.673,509.86 50.675,861.855 181.321,786.428 181.325,484.716 137.639,459.495 "/>
<path fill="#0000FF" d="M50.675,868.855c-1.208,0-2.417-0.313-3.5-0.938c-2.166-1.251-3.5-3.562-3.5-6.063L43.673,509.86
	c0-2.497,1.331-4.806,3.492-6.058l86.966-50.365c2.167-1.254,4.84-1.257,7.008-0.005l43.686,25.222c2.166,1.251,3.5,3.562,3.5,6.063
	l-0.004,301.712c0,2.501-1.334,4.812-3.5,6.063L54.175,867.917C53.092,868.542,51.883,868.855,50.675,868.855z M57.673,513.895
	l0.002,335.836l116.646-67.344l0.004-293.63l-36.681-21.177L57.673,513.895z"/>
<polygon fill="#FFFFFF" points="7,484.716 268.471,635.542 442.599,535.103 442.615,685.962 268.51,786.534 50.653,660.701 
	50.675,861.856 7.129,836.714 "/>
<path fill="#0000FF" d="M50.675,868.856c-1.208,0-2.417-0.313-3.5-0.938L3.629,842.777c-2.165-1.25-3.499-3.56-3.5-6.06L0,484.719
	c-0.001-2.501,1.333-4.813,3.498-6.063c2.166-1.251,4.834-1.252,7-0.003l257.973,148.809l170.63-98.422
	c2.167-1.248,4.834-1.249,6.999,0.002c2.165,1.25,3.499,3.561,3.499,6.061l0.016,150.859c0,2.501-1.333,4.812-3.499,6.063
	L272.011,792.595c-2.167,1.252-4.836,1.252-7.002,0L57.654,672.829l0.021,189.026c0,2.501-1.334,4.813-3.5,6.063
	C53.092,868.543,51.883,868.856,50.675,868.856z M14.127,832.672l29.546,17.059l-0.021-189.029c0-2.501,1.334-4.813,3.5-6.063
	c2.166-1.25,4.835-1.251,7.001,0.001L268.51,778.45l167.105-96.527L435.6,547.221l-163.632,94.385c-2.164,1.248-4.83,1.248-6.995,0
	L14.004,496.837L14.127,832.672z"/>
<polygon fill="#8080FF" points="50.677,610.43 94.234,585.379 268.421,685.858 398.955,611.077 399.058,661.313 268.47,736.035 "/>
<path fill="#0000FF" d="M268.47,743.035c-1.208,0-2.415-0.313-3.497-0.937L47.18,616.494c-2.169-1.25-3.504-3.564-3.503-6.067
	c0.001-2.504,1.34-4.816,3.51-6.064l43.557-25.051c2.163-1.243,4.826-1.242,6.987,0.005l170.701,98.468l127.042-72.781
	c2.164-1.239,4.823-1.234,6.983,0.015c2.159,1.248,3.491,3.551,3.496,6.045l0.104,50.236c0.005,2.516-1.34,4.841-3.523,6.091
	L271.947,742.11C270.87,742.727,269.67,743.035,268.47,743.035z M64.703,610.439l203.781,117.522l123.565-70.703l-0.07-34.118
	l-120.078,68.792c-2.162,1.237-4.82,1.232-6.977-0.011L94.229,593.458L64.703,610.439z"/>
<polygon fill="#5555FF" points="50.677,610.43 50.678,560.141 94.234,585.379 "/>
<path fill="#0000FF" d="M50.677,617.43c-1.21,0-2.421-0.313-3.505-0.94c-2.163-1.252-3.495-3.561-3.495-6.06l0.001-50.289
	c0-2.503,1.336-4.815,3.505-6.065c2.167-1.25,4.839-1.247,7.004,0.009l43.556,25.238c2.164,1.254,3.495,3.567,3.491,6.068
	s-1.342,4.81-3.51,6.057l-43.557,25.051C53.087,617.12,51.882,617.43,50.677,617.43z M57.678,572.288l0,26.041l22.555-12.972
	L57.678,572.288z"/>
<polygon fill="#5555FF" points="399.059,660.835 399.088,610.534 355.524,635.668 "/>
<path fill="#0000FF" d="M399.059,667.835c-1.21,0-2.42-0.313-3.503-0.939l-43.535-25.167c-2.165-1.252-3.498-3.563-3.497-6.063
	s1.336-4.811,3.502-6.061l43.564-25.135c2.166-1.249,4.835-1.248,7.001,0.003c2.165,1.252,3.498,3.563,3.497,6.064l-0.029,50.302
	c-0.001,2.501-1.337,4.812-3.504,6.061C401.473,667.524,400.266,667.835,399.059,667.835z M369.521,635.674l22.545,13.033
	l0.016-26.05L369.521,635.674z"/>
<line fill="#FFFFFF" x1="268.471" y1="635.542" x2="268.42" y2="685.858"/>
<rect x="261.446" y="635.542" fill="#0000FF" width="14" height="50.315"/>
<line fill="#FFFFFF" x1="268.415" y1="736.034" x2="268.365" y2="786.325"/>
<rect x="261.39" y="736.034" fill="#0000FF" width="14" height="50.291"/>
<polygon fill="#5555FF" points="7.257,484.716 94.223,434.428 225.349,509.977 311.784,459.495 442.664,535.103 268.471,635.542 "/>
<path fill="#0000FF" d="M268.471,642.542c-1.208,0-2.417-0.313-3.5-0.938L3.757,490.778c-2.165-1.25-3.499-3.56-3.5-6.06
	s1.332-4.811,3.496-6.062l86.966-50.289c2.164-1.252,4.833-1.254,6.999-0.006l127.607,73.522l82.929-48.435
	c2.17-1.268,4.854-1.273,7.032-0.017l130.88,75.608c2.165,1.251,3.499,3.563,3.498,6.064s-1.337,4.812-3.503,6.062L271.967,641.607
	C270.885,642.231,269.678,642.542,268.471,642.542z M21.249,484.711L268.473,627.46l160.187-92.363L311.803,467.59l-82.924,48.432
	c-2.168,1.266-4.848,1.274-7.025,0.021L94.229,442.51L21.249,484.711z"/>
<polygon fill="#0000FF" points="573.733,258.428 355.694,133.056 224.911,208.17 442.615,333.84 "/>
<path fill="#0000FF" d="M442.615,340.84c-1.209,0-2.417-0.313-3.5-0.938l-217.704-125.67c-2.168-1.252-3.503-3.566-3.5-6.07
	c0.003-2.503,1.343-4.815,3.514-6.062l130.783-75.114c2.159-1.242,4.816-1.24,6.976,0.001L577.222,252.36
	c2.172,1.249,3.511,3.563,3.511,6.068c0,2.505-1.339,4.819-3.51,6.068l-131.118,75.412C445.024,340.53,443.82,340.84,442.615,340.84
	z M238.939,208.185l203.683,117.576l117.069-67.332L355.692,141.13L238.939,208.185z"/>
<polygon fill="#5555FF" points="486.159,208.253 616.805,132.715 573.257,107.574 442.471,182.892 "/>
<path fill="#0000FF" d="M486.159,215.253c-1.214,0-2.428-0.315-3.515-0.946l-43.688-25.361c-2.161-1.255-3.489-3.566-3.485-6.066
	c0.004-2.499,1.341-4.807,3.507-6.054l130.786-75.318c2.164-1.247,4.829-1.245,6.993,0.003l43.548,25.141
	c2.165,1.25,3.499,3.56,3.5,6.06c0.001,2.5-1.332,4.811-3.496,6.063l-130.646,75.538
	C488.579,214.94,487.369,215.253,486.159,215.253z M456.456,182.917l29.71,17.247l116.646-67.444l-29.559-17.065L456.456,182.917z"
	/>
<polygon fill="#8080FF" points="486.053,509.82 616.188,434.468 616.805,132.716 486.159,208.253 "/>
<path fill="#0000FF" d="M486.053,516.82c-1.208,0-2.415-0.313-3.497-0.937c-2.168-1.25-3.504-3.563-3.503-6.066l0.105-301.566
	c0.001-2.499,1.333-4.807,3.496-6.058l130.646-75.537c2.168-1.253,4.84-1.253,7.008,0c2.168,1.253,3.501,3.57,3.496,6.074
	l-0.617,301.752c-0.005,2.493-1.335,4.794-3.492,6.043l-130.135,75.352C488.476,516.505,487.264,516.82,486.053,516.82z
	 M493.158,212.292l-0.101,285.383l116.139-67.248l0.585-285.564L493.158,212.292z"/>
<polygon fill="#FFFFFF" points="181.44,82.43 181.522,434.476 224.992,459.571 224.911,258.412 442.615,384.129 442.753,484.837 
	486.052,509.82 486.159,208.362 442.471,183.001 442.615,333.84 224.911,208.17 224.986,107.573 "/>
<path fill="#0000FF" d="M486.052,516.82c-1.208,0-2.416-0.313-3.498-0.937l-43.299-24.982c-2.164-1.249-3.499-3.556-3.502-6.054
	l-0.133-96.674L231.916,270.541l0.076,189.027c0.001,2.501-1.333,4.813-3.499,6.064c-2.165,1.253-4.834,1.252-7.001,0.001
	l-43.469-25.095c-2.165-1.25-3.5-3.561-3.5-6.061L174.44,82.432c0-2.501,1.333-4.813,3.5-6.063s4.834-1.251,7,0l43.545,25.143
	c2.167,1.251,3.502,3.564,3.5,6.067l-0.072,96.552l203.689,117.58l-0.132-138.702c-0.002-2.505,1.334-4.82,3.504-6.071
	s4.843-1.247,7.011,0.011l43.688,25.361c2.158,1.253,3.486,3.561,3.485,6.056l-0.106,301.458c-0.001,2.5-1.335,4.81-3.5,6.06
	C488.469,516.507,487.26,516.82,486.052,516.82z M449.748,480.792l29.309,16.91l0.102-285.311l-29.675-17.226l0.132,138.668
	c0.002,2.502-1.331,4.815-3.497,6.067c-2.164,1.251-4.835,1.253-7.003,0.002l-217.704-125.67c-2.167-1.251-3.502-3.565-3.5-6.068
	l0.072-96.552l-29.54-17.056l0.078,335.877l29.465,17.01l-0.076-189.029c-0.001-2.501,1.333-4.813,3.499-6.064s4.835-1.251,7.001,0
	l217.705,125.717c2.162,1.249,3.495,3.555,3.499,6.052L449.748,480.792z"/>
</svg>
